<svg xmlns="http://www.w3.org/2000/svg" aria-hidden="true" overflow="hidden" style="position:absolute;width:0;height:0">
  <defs>
    <symbol id="icon-arrow" viewBox="0 0 32 32" fill="currentColor">
      <path d="M.52 17.015a1.778 1.778 0 0 1 0-2.514L11.834 3.187a1.778 1.778 0 0 1 2.514 2.514L4.291 15.758l10.057 10.057a1.778 1.778 0 0 1-2.514 2.514L.52 17.015zm31.056.521H1.777V13.98h29.799v3.556z"/>
    </symbol>
    <symbol id="icon-education" viewBox="0 0 32 32">
      <path d="M15.802 0c-1.145 0-2.215.522-3.127 1.376s-1.692 2.044-2.343 3.485a18.01 18.01 0 0 0-.391.939 18.142 18.142 0 0 0-1.011-.131 14.909 14.909 0 0 0-1.15-.072c-1.12-.027-2.143.087-3.04.359-1.196.363-2.182 1.028-2.755 2.02s-.656 2.179-.372 3.396c.284 1.217.924 2.488 1.847 3.772.194.269.401.54.619.81-.214.264-.42.533-.618.809-.923 1.284-1.563 2.555-1.847 3.772s-.201 2.404.372 3.396 1.559 1.658 2.755 2.02 2.616.444 4.19.286c.33-.033.667-.077 1.01-.131.122.317.252.631.392.941.651 1.441 1.431 2.631 2.343 3.485s1.982 1.376 3.127 1.376c1.145 0 2.215-.522 3.127-1.376s1.692-2.044 2.343-3.485c.139-.31.27-.624.392-.941a17.9 17.9 0 0 0 1.009.131c1.574.157 2.994.076 4.19-.286s2.182-1.028 2.755-2.02.656-2.179.372-3.396-.924-2.488-1.847-3.772a17.818 17.818 0 0 0-.618-.809c.214-.264.42-.534.619-.809.923-1.284 1.563-2.555 1.847-3.772s.201-2.404-.372-3.396-1.559-1.658-2.755-2.02c-.897-.272-1.92-.385-3.039-.359-.373.009-.757.033-1.15.072-.33.033-.667.077-1.01.131-.122-.317-.252-.63-.391-.939-.651-1.441-1.431-2.631-2.343-3.485S16.95.001 15.805.001zm0 1.274c.764 0 1.513.336 2.256 1.032s1.452 1.749 2.053 3.08c.098.217.191.436.279.657-1.46.325-3.007.823-4.588 1.488a27.09 27.09 0 0 0-4.587-1.488c.09-.226.183-.446.279-.658.601-1.331 1.31-2.384 2.053-3.08s1.492-1.031 2.256-1.031zM7.375 6.869a13.553 13.553 0 0 1 1.428.068c.232.023.47.053.711.088a27.024 27.024 0 0 0-1.005 4.717 27.01 27.01 0 0 0-3.583 3.229 15.801 15.801 0 0 1-.431-.571c-.852-1.185-1.409-2.326-1.641-3.318s-.147-1.808.235-2.469c.382-.662 1.047-1.143 2.021-1.438.639-.194 1.405-.298 2.266-.306zm16.852 0c.861.008 1.626.112 2.266.306.974.295 1.639.776 2.021 1.438s.466 1.478.235 2.469c-.231.991-.789 2.132-1.641 3.318-.14.194-.283.384-.431.571a27.13 27.13 0 0 0-3.582-3.229 27.056 27.056 0 0 0-1.005-4.718 14.236 14.236 0 0 1 1.763-.154c.125-.003.25-.004.375-.003zm-3.403.385c.339 1.053.619 2.214.829 3.457a34.473 34.473 0 0 0-4.237-2.446 24.781 24.781 0 0 1 3.408-1.011zm-10.044 0a24.76 24.76 0 0 1 3.407 1.01 34.599 34.599 0 0 0-4.236 2.445c.209-1.242.49-2.404.829-3.456zm5.021 1.667c1.037.457 2.089.989 3.138 1.595s2.037 1.252 2.951 1.921c.122 1.127.188 2.304.188 3.516s-.066 2.388-.188 3.514a32.84 32.84 0 0 1-6.09 3.516c-1.037-.457-2.09-.989-3.139-1.595s-2.036-1.251-2.95-1.92c-.122-1.127-.188-2.304-.188-3.515s.066-2.39.188-3.517a32.822 32.822 0 0 1 6.088-3.515zm.086 1.917-3.648 2.251 3.648 2.251 3.648-2.251-3.648-2.251zm-7.551 2.669a35.027 35.027 0 0 0 0 4.892 24.69 24.69 0 0 1-2.579-2.446 24.69 24.69 0 0 1 2.579-2.446zm14.932 0a24.776 24.776 0 0 1 2.578 2.446 24.77 24.77 0 0 1-2.578 2.445 34.992 34.992 0 0 0 0-4.891zm-11.85.573v4.445l3.831 2.364v-4.445l-3.831-2.364zm8.936.002-3.83 2.364v4.443l3.83-2.364v-4.443zM4.925 16.935a26.94 26.94 0 0 0 3.583 3.229c.214 1.702.556 3.29 1.005 4.716-.241.035-.478.065-.709.088-1.453.145-2.72.057-3.694-.238s-1.639-.776-2.021-1.438c-.382-.662-.466-1.478-.235-2.469s.789-2.132 1.641-3.318c.139-.193.283-.384.43-.571zm21.752 0c.15.191.295.381.43.57.852 1.185 1.409 2.326 1.641 3.317s.147 1.808-.234 2.469c-.382.662-1.047 1.143-2.021 1.438s-2.241.383-3.693.238a15.414 15.414 0 0 1-.709-.088 27.036 27.036 0 0 0 1.005-4.718 27.057 27.057 0 0 0 3.582-3.228zm-5.024 4.26a24.682 24.682 0 0 1-.829 3.457 24.781 24.781 0 0 1-3.408-1.011 35.272 35.272 0 0 0 4.236-2.446zm-11.702.001a35.248 35.248 0 0 0 4.235 2.446c-1.181.44-2.326.778-3.407 1.01a24.636 24.636 0 0 1-.828-3.456zm5.888.058.046.029.046-.029h-.093zm-.038 3.12a27.128 27.128 0 0 0 4.588 1.488c-.088.222-.181.442-.279.659-.601 1.33-1.31 2.384-2.053 3.08s-1.492 1.032-2.256 1.032c-.764 0-1.513-.336-2.256-1.032s-1.452-1.749-2.053-3.08a16.45 16.45 0 0 1-.279-.659 27.09 27.09 0 0 0 4.587-1.488z"/>
    </symbol>
    <symbol id="icon-equipment" viewBox="0 0 32 32">
      <path d="M9.755 11.448H-.137a.539.539 0 0 0-.55.527v3.164c0 .292.246.527.55.527h.55v12.127c0 .292.246.527.55.527h7.694c.304 0 .55-.236.55-.527V15.666h.55c.304 0 .55-.236.55-.527v-3.164a.538.538 0 0 0-.55-.527zM3.71 21.465V20.41h3.297v-1.055H3.71V18.3h4.396v6.854H3.71v-2.636h1.099v-1.055H3.71zm4.396-4.218H3.16a.539.539 0 0 0-.55.527v7.909c0 .292.246.527.55.527h4.946v1.055H1.511v-11.6h6.595v1.582zm1.099-2.636H.412v-2.109h8.793v2.109zm7.831-3.065V7.691c0-.3-.246-.543-.55-.543h-.55V4.434h1.099V3.348H10.99v1.086h3.847v2.714h-.55a.546.546 0 0 0-.55.543v3.855c-1.252.252-2.198 1.348-2.198 2.659v13.571c0 .3.246.543.55.543h6.595c.304 0 .55-.243.55-.543V14.205c0-1.31-.946-2.407-2.198-2.659zm-2.198-3.312h1.099v3.257h-1.099V8.234zm-.549 4.343h2.198c.909 0 1.649.731 1.649 1.629v.543H12.64v-.543c0-.898.74-1.629 1.649-1.629zm3.846 12.486h-5.496v-1.086h2.198v-1.086h-2.198v-7.057h5.496v9.228zm-5.495 2.171v-1.086h5.496v1.086H12.64zm18.444-16.461H21.81a.523.523 0 0 0-.515.532v16.484c0 .294.23.532.515.532h9.274a.523.523 0 0 0 .515-.532V11.305a.523.523 0 0 0-.515-.532zm-.515 16.483h-8.243v-15.42h8.243v15.42z"/>
      <path d="M7.557 21.571H6.183v.675h1.374v-.675zm9.617 1.35H15.8v1.35h1.374v-1.35zm-1.718-1.35c1.326 0 2.404-1.059 2.404-2.362s-1.078-2.362-2.404-2.362c-1.326 0-2.404 1.059-2.404 2.362s1.078 2.362 2.404 2.362zm0-3.543c.663 0 1.202.53 1.202 1.181s-.539 1.181-1.202 1.181c-.663 0-1.202-.53-1.202-1.181s.539-1.181 1.202-1.181zm9.703-1.856h2.576c.994 0 1.803-.757 1.803-1.687s-.809-1.687-1.803-1.687h-2.576c-.994 0-1.803.757-1.803 1.687s.809 1.687 1.803 1.687zm3.349-1.688c0 .399-.347.723-.773.723h-.773v-1.446h.773c.426 0 .773.324.773.723zm-3.349-.723h.773v1.446h-.773c-.426 0-.773-.324-.773-.723s.347-.723.773-.723zm0 7.81h2.576c.994 0 1.803-.908 1.803-2.025s-.809-2.025-1.803-2.025h-2.576c-.994 0-1.803.908-1.803 2.025s.809 2.025 1.803 2.025zm3.349-2.025c0 .478-.347.868-.773.868h-.773v-1.735h.773c.426 0 .773.389.773.868zm-3.349-.868h.773v1.735h-.773c-.426 0-.773-.389-.773-.868s.347-.868.773-.868zm0 7.617h2.576c.994 0 1.803-.908 1.803-2.025s-.809-2.025-1.803-2.025h-2.576c-.994 0-1.803.908-1.803 2.025s.809 2.025 1.803 2.025zm3.349-2.025c0 .478-.347.868-.773.868h-.773v-1.735h.773c.426 0 .773.389.773.868zm-3.349-.867h.773v1.735h-.773c-.426 0-.773-.389-.773-.868s.347-.868.773-.868z"/>
    </symbol>
    <symbol id="icon-goal" viewBox="0 0 32 32">
      <path d="M31.267 8.842c-.282-.256-.624-.42-.986-.474s-.731.004-1.065.167l-7.046 3.438a.243.243 0 0 1-.205.023.248.248 0 0 1-.092-.055.313.313 0 0 1-.066-.09l-4.116-8.135c-.167-.336-.413-.617-.713-.812s-.641-.299-.99-.299-.69.103-.99.299a2.06 2.06 0 0 0-.713.812l-4.116 8.135a.27.27 0 0 1-.158.145c-.034.011-.069.015-.105.011s-.069-.016-.1-.034L2.759 8.535c-.333-.166-.701-.226-1.064-.173s-.704.217-.986.472c-.282.256-.493.594-.609.975s-.133.791-.048 1.182L3.61 27.614c.06.281.172.546.328.778s.353.427.579.573c.298.201.641.307.991.307.179-.002.357-.028.53-.077a34.105 34.105 0 0 1 19.884-.015c.254.081.52.104.782.068s.515-.13.743-.276c.228-.146.427-.342.585-.575s.27-.499.332-.782l3.544-16.623c.088-.388.075-.796-.038-1.177s-.323-.717-.603-.972zm-.976 1.719-3.558 16.623a.358.358 0 0 1-.126.2.321.321 0 0 1-.223.031 35.63 35.63 0 0 0-20.791 0 .255.255 0 0 1-.22-.032c-.033-.022-.061-.05-.083-.084s-.038-.073-.046-.114L1.686 10.562a.361.361 0 0 1 .003-.139.318.318 0 0 1 .154-.211.28.28 0 0 1 .122-.034l.112.031 7.06 3.453c.445.221.95.248 1.413.078s.85-.527 1.085-.998l4.116-8.135a.29.29 0 0 1 .098-.118.244.244 0 0 1 .278 0 .291.291 0 0 1 .098.118l4.116 8.135c.235.471.622.828 1.085.998s.968.143 1.413-.078l7.06-3.453c.048-.023.101-.031.152-.023s.101.032.14.069c.041.036.072.084.089.138s.02.113.009.169zm-9 11.665c-.024.227-.122.436-.276.588s-.354.238-.561.24h-.084a39.867 39.867 0 0 0-8.763 0c-.22.026-.44-.045-.613-.198s-.283-.374-.308-.616c-.02-.244.048-.486.189-.675s.343-.31.564-.338a39.213 39.213 0 0 1 9.098 0c.218.027.419.146.559.332s.21.424.194.666z"/>
    </symbol>
    <symbol id="icon-facebook" viewBox="0 0 32 32" fill="currentColor">
      <path d="M24.29.238A42.834 42.834 0 0 0 19.662 0c-5.125 0-8.309 3.264-8.309 8.518v3.567H7.048a.762.762 0 0 0-.762.762v5.867a.762.762 0 0 0 .762.762h4.305V31.24a.762.762 0 0 0 .762.762h6.062a.762.762 0 0 0 .762-.762V19.476h4.291a.763.763 0 0 0 .756-.663l.757-5.867a.774.774 0 0 0-.182-.602.758.758 0 0 0-.572-.26h-5.048V9.099c0-1.478.297-2.095 2.146-2.095h3.107a.762.762 0 0 0 .762-.762V.992a.763.763 0 0 0-.663-.756zm-.861 5.242-2.347.002c-3.287 0-3.668 2.066-3.668 3.619v3.749a.76.76 0 0 0 .761.762h4.946l-.562 4.343h-4.383a.762.762 0 0 0-.762.762v11.761h-4.538V18.717a.762.762 0 0 0-.762-.762H7.811v-4.343h4.303a.762.762 0 0 0 .762-.762V8.519c0-4.379 2.537-6.994 6.786-6.994 1.538 0 2.926.084 3.767.157v3.799z"/>
    </symbol>
    <symbol id="icon-instagram" viewBox="0 0 32 32" fill="currentColor">
      <path d="M15.68 8.32a7.364 7.364 0 0 0-6.8 4.543 7.36 7.36 0 1 0 6.798-4.545zm0 12.8a5.436 5.436 0 0 1-5.026-3.358 5.436 5.436 0 0 1 3.964-7.417 5.437 5.437 0 0 1 5.584 2.314c.598.895.917 1.946.917 3.022a5.455 5.455 0 0 1-5.44 5.44zM22.72 0H8.64A8.643 8.643 0 0 0 0 8.64v14.08a8.643 8.643 0 0 0 8.64 8.64h14.08a8.643 8.643 0 0 0 8.64-8.64V8.64A8.643 8.643 0 0 0 22.72 0zm6.72 22.72a6.723 6.723 0 0 1-6.72 6.72H8.64a6.721 6.721 0 0 1-6.72-6.72V8.64a6.721 6.721 0 0 1 6.72-6.72h14.08a6.723 6.723 0 0 1 6.72 6.72v14.08zM25.6 7.36a1.6 1.6 0 1 1-3.198 0 1.6 1.6 0 0 1 3.197 0z"/>
    </symbol>
    <symbol id="icon-phone" viewBox="0 0 32 32" fill="currentColor">
      <path d="m27.831 22.83-.179-.223c-1.416-1.791-2.6-2.722-3.616-2.845-.878-.12-1.727.487-2.63 1.112l-.965.603c-.116.058-.23.105-.337.136-.564.16-1.989.253-2.795-.484-.939-.859-2.395-2.431-3.528-3.804-1.082-1.422-2.271-3.195-2.892-4.311-.524-.946-.085-2.268.208-2.758.058-.096.133-.191.217-.285l.851-.786c.012-.012.018-.028.029-.039.008-.008.022-.005.032-.012.768-.648 1.562-1.316 1.671-2.173.128-1.007-.498-2.37-1.917-4.159l-.173-.223C10.929 1.453 9.601-.249 7.693.031c-.75.111-1.42.367-2.111.801-.007.004-.011.012-.017.017s-.012.004-.018.008l-.962.713c-.01.006-.015.018-.025.026-.007.007-.018.008-.026.015-.111.094-.223.19-.333.289-.976.87-3.088 3.395-1.647 8.067.93 3.017 2.849 6.538 5.562 10.201l-.026.022 1.496 1.864.012-.01c2.941 3.479 5.935 6.169 8.678 7.797 1.831 1.087 3.43 1.447 4.746 1.447 1.731 0 2.971-.622 3.594-1.027l.391-.262c.044-.03.076-.073.107-.111l.852-.641c.01-.008.015-.019.025-.028.004-.004.011-.003.017-.007.606-.553 1.025-1.133 1.317-1.82.756-1.76-.597-3.446-1.492-4.563zm.48 4.13c-.227.534-.559.988-1.038 1.429l-1.268.954c-1.148.746-3.602 1.668-7.167-.449-2.743-1.628-5.763-4.381-8.734-7.961L9.3 19.917c-2.798-3.711-4.766-7.264-5.695-10.276-1.207-3.916.314-6.016 1.332-6.923.103-.094.206-.18.308-.267l.004-.004.924-.684a4.204 4.204 0 0 1 1.681-.644c1.279-.193 2.319 1.156 3.083 2.136l.179.227c1.586 2 1.738 2.951 1.689 3.339-.055.431-.71.983-1.288 1.469l-.081.069-.007.01-.012.007-.879.813c-.005.005-.008.012-.014.019s-.017.01-.022.017a3.137 3.137 0 0 0-.348.464c-.494.827-.961 2.537-.224 3.859.643 1.156 1.866 2.982 2.991 4.458 1.175 1.426 2.674 3.044 3.646 3.932.728.665 1.741.888 2.618.888.469 0 .9-.065 1.226-.157.172-.05.35-.121.533-.211.011-.005.017-.015.028-.022.005-.003.014-.001.019-.006l1.021-.639c.033-.022.055-.051.083-.078l.012.014c.629-.436 1.346-.948 1.795-.874.398.048 1.301.431 2.889 2.436l.183.23c.773.965 1.833 2.286 1.339 3.441z"/>
    </symbol>
    <symbol id="icon-point" viewBox="0 0 32 32" fill="currentColor">
      <path d="M32 16c0 8.837-7.163 16-16 16S0 24.837 0 16 7.163 0 16 0s16 7.163 16 16z"/>
    </symbol>
    <symbol id="icon-star-big" viewBox="0 0 32 32">
      <path d="M6.693 0 17.35 10.184l14.321-3.491L21.487 17.35l3.491 14.321-10.657-10.184L0 24.978l10.184-10.657L6.693 0z"/>
    </symbol>
    <symbol id="icon-star-normal" viewBox="0 0 32 32">
      <path d="m24.979 0-3.491 14.321 10.184 10.657-14.321-3.491L6.694 31.671l3.491-14.321L.001 6.693l14.321 3.491L24.979 0z"/>
    </symbol>
    <symbol id="icon-star-smoll" viewBox="0 0 32 32">
      <path d="m9.078 0 8.697 10.661 13.667-1.582-10.661 8.697 1.582 13.667-8.697-10.661-13.667 1.582 10.661-8.697L9.078 0z"/>
    </symbol>
    <symbol id="icon-close" viewBox="0 0 20 20" fill="currentColor">
      <path d="M10 8.586 2.929 1.515 1.515 2.929 8.586 10l-7.071 7.071 1.414 1.414L10 11.414l7.071 7.071 1.414-1.414L11.414 10l7.071-7.071-1.414-1.414L10 8.586z"/>
    </symbol>
  </defs>
</svg>
